<?xml version="1.0" encoding="utf-8"?>
<svg width="168px" height="40px" viewBox="0 0 168 40" version="1.1" xmlns="http://www.w3.org/2000/svg">
  <title>bemer-logo</title>
  <desc>Created with Sketch.</desc>
  <path d="M 144.896 16.919 C 144.896 16.917 144.9 16.94 144.903 16.957 C 144.901 16.949 144.9 16.942 144.896 16.919 Z" id="Fill-1" style="fill: rgb(0, 0, 0);" fill="#010202" stroke="none" stroke-width="1" fill-rule="evenodd"/>
  <path d="M 128.263 28.957 C 128.263 31.161 129.695 32.243 131.14 32.243 C 131.471 32.243 131.749 32.175 131.869 32.135 L 131.869 30.255 C 131.869 29.795 131.829 29.538 131.816 29.227 C 132.319 29.159 133.035 29.024 133.446 29.024 C 133.671 29.024 133.764 29.105 133.764 29.39 L 133.764 32.406 C 133.473 32.663 133.035 32.96 132.651 33.149 C 132.161 33.298 131.471 33.433 130.822 33.433 C 128.661 33.433 126.249 32.473 126.249 29.064 C 126.249 26.251 128.369 24.574 130.981 24.574 C 132.386 24.574 133.407 25.007 133.764 25.372 C 133.777 25.981 133.353 26.414 132.876 26.319 C 132.319 26.075 131.643 25.913 130.967 25.913 C 129.456 25.913 128.263 26.873 128.263 28.957 Z" id="Fill-1" style="fill: rgb(237, 132, 50);" stroke="none" stroke-width="1" fill-rule="evenodd"/>
  <path d="M 139.371 27.333 C 139.371 26.305 138.761 25.818 137.966 25.818 C 137.807 25.818 137.621 25.832 137.475 25.859 L 137.475 28.74 C 137.78 28.78 138.483 28.74 138.668 28.645 C 138.854 28.55 139.371 28.212 139.371 27.333 Z M 140.855 31.04 C 141.478 32.175 141.849 32.73 142.194 33.136 L 142.194 33.19 C 142.088 33.271 141.518 33.338 140.988 33.338 C 140.431 33.338 140.086 33.23 139.729 32.771 C 139.437 32.392 139.132 31.77 138.575 30.62 C 138.218 29.89 137.966 29.835 137.661 29.835 L 137.475 29.835 L 137.475 32.906 C 137.475 33.176 137.382 33.23 137.157 33.257 C 136.773 33.298 135.898 33.312 135.593 33.312 C 135.62 32.771 135.633 31.972 135.633 30.836 L 135.633 26.305 C 135.633 25.643 135.633 25.318 135.606 24.939 C 135.924 24.872 137.409 24.709 138.019 24.709 C 140.285 24.709 141.293 25.494 141.293 27.171 C 141.293 28.415 140.259 29.024 139.742 29.281 C 140.033 29.551 140.431 30.268 140.855 31.04 Z" id="Fill-1" style="fill: rgb(237, 132, 50);" stroke="none" stroke-width="1" fill-rule="evenodd"/>
  <path d="M 149.444 29.064 C 149.444 27.239 148.596 25.764 147.031 25.764 C 145.879 25.764 144.871 26.711 144.871 28.875 C 144.871 31.066 145.945 32.243 147.257 32.243 C 148.648 32.243 149.444 31.04 149.444 29.064 Z M 151.446 28.929 C 151.446 31.377 149.935 33.433 147.124 33.433 C 144.062 33.433 142.843 31.174 142.843 29.051 C 142.843 26.508 144.447 24.574 147.178 24.574 C 149.935 24.574 151.446 26.562 151.446 28.929 Z" id="Fill-1" style="fill: rgb(237, 132, 50);" stroke="none" stroke-width="1" fill-rule="evenodd"/>
  <path d="M 158.563 25.129 L 158.563 29.186 C 158.563 31.567 157.78 32.054 156.773 32.054 C 155.898 32.054 154.957 31.648 154.957 29.281 L 154.957 25.534 C 154.957 24.872 154.917 24.736 154.665 24.736 C 154.361 24.736 153.287 24.804 153.022 24.845 C 153.048 25.129 153.062 25.683 153.062 26.589 L 153.062 29.362 C 153.062 32.148 154.201 33.433 156.561 33.433 C 158.245 33.433 160.179 32.838 160.179 29.119 L 160.179 27.198 C 160.179 26.075 160.193 25.277 160.22 24.736 C 159.954 24.736 159.265 24.75 158.867 24.791 C 158.669 24.804 158.563 24.858 158.563 25.129 Z" id="Fill-1" style="fill: rgb(237, 132, 50);" stroke="none" stroke-width="1" fill-rule="evenodd"/>
  <path d="M 164.461 24.709 C 163.48 24.709 162.539 24.818 162.181 24.885 C 162.234 25.507 162.234 26.062 162.234 26.711 L 162.234 33.068 C 162.234 33.271 162.327 33.312 162.552 33.312 C 162.95 33.312 163.944 33.271 164.169 33.204 C 164.156 32.933 164.13 32.554 164.13 31.607 L 164.13 25.927 C 164.289 25.9 164.461 25.9 164.567 25.9 C 165.336 25.9 166.038 26.346 166.038 27.482 C 166.038 28.78 165.296 29.119 164.646 29.119 C 164.541 29.119 164.395 29.105 164.328 29.105 C 164.328 29.592 164.594 30.025 164.819 30.133 C 164.978 30.215 165.309 30.228 165.482 30.228 C 166.264 30.215 168 29.497 168 27.496 C 168 25.413 166.542 24.709 164.461 24.709 Z" id="Fill-1" style="fill: rgb(237, 132, 50);" stroke="none" stroke-width="1" fill-rule="evenodd"/>
  <path d="M 27.741 7.8740000000000006 C 27.741 3.939 24.605 0.738 20.749 0.738 L 2.246 0.738 C 1.007 0.738 0 1.7690000000000001 0 3.037 L 0 23.253 C 0 24.523 1.007 25.555 2.246 25.555 C 3.484 25.555 4.492 24.523 4.492 23.253 L 4.492 5.048 L 21.385 5.047 C 22.909 5.166 23.35 6.437 23.379 7.769 C 23.398 9.234 22.915 10.515 21.287 10.552 L 11.538 10.552 C 10.257 10.552 9.292 11.478 9.292 12.705 C 9.292 13.936 10.257 14.864 11.538 14.864 L 21.331 14.864 C 22.921 14.883 23.389 16.517 23.389 17.901 C 23.389 19.293 23.035 20.711 21.488 20.983 L 9.524000000000001 20.994 C 8.244 20.994 7.279 21.921 7.279 23.148 C 7.279 24.377 8.244 25.304 9.524000000000001 25.304 L 20.58 25.308 L 20.65 25.304 C 24.611 25.267 27.784 22.069 27.872 18.026 L 27.878 17.813 C 27.867 15.902 27.156 14.103 25.872 12.725 C 27.079 11.4 27.741 9.685 27.741 7.8740000000000006 Z" id="Fill-1" style="fill: rgb(102, 102, 102);" stroke="none" stroke-width="1" fill-rule="evenodd"/>
  <path d="M 84.274 0.9530000000000001 C 84.412 1.057 84.372 1.027 84.274 0.9530000000000001 Z" id="Fill-1" style="fill: rgb(0, 0, 0);" fill="#010202" stroke="none" stroke-width="1" fill-rule="evenodd"/>
  <path d="M 84.053 0.7879999999999999 C 84.156 0.8650000000000001 84.224 0.916 84.274 0.9530000000000001 C 84.211 0.906 84.128 0.8440000000000001 84.053 0.7879999999999999 Z" id="Fill-1" style="fill: rgb(0, 0, 0);" fill="#010202" stroke="none" stroke-width="1" fill-rule="evenodd"/>
  <path d="M 84.053 0.7879999999999999 C 83.996 0.745 83.96 0.718 83.933 0.698 C 83.965 0.721 84.006 0.752 84.053 0.7879999999999999 Z" id="Fill-1" style="fill: rgb(0, 0, 0);" fill="#010202" stroke="none" stroke-width="1" fill-rule="evenodd"/>
  <path d="M 84.053 0.7879999999999999 C 82.23 -0.581 79.616 -0.109 78.325 1.7650000000000001 C 77.87 2.425 77.512 3.169 77.116 3.866 L 73.902 9.52 L 72.51 7.505 C 72 6.767 71.525 5.881 70.846 5.287 C 68.908 3.593 65.878 4.13 64.601 6.388 L 47.607 36.435 C 46.9 37.684 47.512 39.329 48.861 39.775 C 49.912 40.123 51.005 39.629 51.545 38.673 L 68.198 9.23 C 68.969 10.372 69.702 11.558 70.538 12.651 C 71.425 13.81 72.603 14.541 74.092 14.454 C 75.547 14.369 76.589 13.538 77.375 12.354 C 78.771 10.253 79.946 7.973 81.217 5.79 L 81.217 23.249 L 81.217 23.263 C 81.217 23.27 81.219 23.277 81.219 23.284 C 81.221 23.407 81.234 23.526 81.255 23.644 C 81.262 23.689 81.268 23.733 81.278 23.778 C 81.3 23.873 81.329 23.966 81.363 24.056 C 81.595 24.699 82.096 25.202 82.729 25.428 C 82.764 25.441 82.8 25.451 82.835 25.462 C 82.925 25.489 83.014 25.513 83.108 25.528 C 83.206 25.545 83.306 25.556 83.407 25.559 C 83.426 25.559 83.443 25.565 83.461 25.565 C 83.469 25.565 83.475 25.562 83.481 25.562 C 83.61 25.562 83.74 25.547 83.87 25.522 C 83.898 25.517 83.924 25.513 83.951 25.506 C 83.977 25.5 84.003 25.497 84.029 25.491 C 84.639 25.328 85.024 25.014 85.273 24.614 C 85.544 24.234 85.709 23.769 85.709 23.263 L 85.709 4.018 C 85.652 2.759 85.062 1.546 84.053 0.7879999999999999 Z" id="Fill-1" style="fill: rgb(237, 132, 50);" stroke="none" stroke-width="1" fill-rule="evenodd"/>
  <path d="M 53.678 20.993 L 36.273 20.982 C 34.726 20.71 34.372 19.292 34.372 17.9 C 34.372 16.516 34.84 14.882 36.43 14.863 L 46.223 14.863 C 47.503 14.863 48.469 13.935 48.469 12.704 C 48.469 11.476 47.503 10.551 46.223 10.551 L 36.473 10.551 C 34.846000000000004 10.514 34.362 9.233 34.381 7.768 C 34.41 6.436 34.851 5.165 36.376 5.046 L 55.56 5.048 C 56.839 5.047 57.803 4.121 57.803 2.894 C 57.803 1.665 56.838 0.738 55.559 0.738 L 37.012 0.736 C 33.156 0.736 30.02 3.9370000000000003 30.02 7.873 C 30.02 9.684 30.682 11.399000000000001 31.889 12.724 C 30.604 14.102 29.894 15.901 29.883 17.812 L 29.889 18.025 C 29.977 22.068 33.15 25.265 37.111 25.303 L 37.181 25.306 L 51.24 25.303 L 53.678 20.993 Z" id="Fill-1" style="fill: rgb(102, 102, 102);" stroke="none" stroke-width="1" fill-rule="evenodd"/>
  <path d="M 94.528 5.046 L 111.854 5.048 C 113.133 5.047 114.097 4.121 114.097 2.894 C 114.097 1.665 113.132 0.738 111.853 0.738 L 95.164 0.736 C 91.308 0.736 88.171 3.9370000000000003 88.171 7.873 C 88.171 9.684 88.834 11.399000000000001 90.041 12.724 C 88.756 14.102 88.045 15.901 88.035 17.812 L 88.04 18.025 C 88.129 22.068 91.301 25.265 95.263 25.303 L 95.332 25.306 L 111.852 25.303 C 113.132 25.303 114.097 24.375 114.097 23.147 C 114.097 21.919 113.132 20.993 111.852 20.993 L 94.425 20.982 C 92.878 20.71 92.524 19.292 92.524 17.9 C 92.524 16.516 92.992 14.882 94.582 14.863 L 104.376 14.863 C 105.655 14.863 106.621 13.935 106.621 12.704 C 106.621 11.476 105.655 10.551 104.376 10.551 L 94.626 10.551 C 92.998 10.514 92.514 9.233 92.534 7.768 C 92.562 6.436 93.003 5.165 94.528 5.046 Z" id="Fill-1" style="fill: rgb(102, 102, 102);" stroke="none" stroke-width="1" fill-rule="evenodd"/>
  <path d="M 144.926 17.463 C 144.935 17.276 144.928 17.104 144.896 16.919 C 144.729 15.975999999999999 144.443 15.082 143.994 14.236 C 143.703 13.689 143.353 13.166 142.919 12.724 C 143.402 12.194 143.806 11.59 144.112 10.936 C 145.179 8.654 144.954 5.892 143.545 3.817 C 142.247 1.908 140.074 0.738 137.796 0.738 C 137.255 0.732 136.713 0.738 136.172 0.738 L 119.504 0.738 L 119.037 0.738 C 117.919 0.738 116.948 1.6179999999999999 116.809 2.749 C 116.739 3.324 116.792 3.932 116.792 4.509 L 116.792 13.398 L 116.792 22.16 C 116.792 22.937 116.706 23.76 117.122 24.453 C 118.304 26.428 121.284 25.481 121.284 23.215 L 121.284 6.985 L 121.284 5.055 C 121.284 5.04 122.75 5.048 122.839 5.048 C 125.867 5.048 128.895 5.047 131.924 5.047 C 134.084 5.047 136.243 5.047 138.404 5.047 C 140.47 5.047 140.848 8.041 140.106 9.509 C 139.505 10.699 138.207 10.552 137.105 10.552 L 128.777 10.552 C 128.118 10.552 127.478 10.692 126.981 11.168 C 126.168 11.949 126.127 13.323 126.892 14.155 C 127.729 15.064 129.079 14.864 130.187 14.864 C 132.711 14.864 135.238 14.823 137.761 14.865 C 138.975 14.889 140.02 15.786 140.331 16.97 C 140.383 17.251 140.409 17.438 140.435 17.681 C 140.468 17.996 140.504 18.311 140.657 18.588 C 140.838 18.896 141.09 19.138 141.39 19.323 C 142.866 20.277 144.833 19.236 144.926 17.463 Z" id="Fill-1" style="fill: rgb(102, 102, 102);" stroke="none" stroke-width="1" fill-rule="evenodd"/>
  <path d="M 144.903 16.957 C 144.907 16.98 144.906 16.975 144.903 16.957 Z" id="Fill-1" style="fill: rgb(0, 0, 0);" fill="#010202" stroke="none" stroke-width="1" fill-rule="evenodd"/>
</svg>